<svg xmlns="http://www.w3.org/2000/svg" viewBox="0 0 1200 600" preserveAspectRatio="xMidYMid slice">
  <rect width="1200" height="600" fill="#040712"></rect>
  <g fill="#E6EEFF">
    <circle cx="50" cy="80" r="0.6" opacity="0.6"></circle>
    <circle cx="120" cy="200" r="0.8" opacity="0.4"></circle>
    <circle cx="180" cy="420" r="0.5" opacity="0.7"></circle>
    <circle cx="240" cy="60" r="1.1" opacity="0.5"></circle>
    <circle cx="300" cy="320" r="0.7" opacity="0.6"></circle>
    <circle cx="360" cy="150" r="0.4" opacity="0.4"></circle>
    <circle cx="420" cy="500" r="1.2" opacity="0.55"></circle>
    <circle cx="480" cy="90" r="0.6" opacity="0.5"></circle>
    <circle cx="540" cy="260" r="0.9" opacity="0.7"></circle>
    <circle cx="600" cy="420" r="0.5" opacity="0.4"></circle>
    <circle cx="660" cy="40" r="0.8" opacity="0.6"></circle>
    <circle cx="720" cy="180" r="1.4" opacity="0.8"></circle>
    <circle cx="780" cy="340" r="0.6" opacity="0.5"></circle>
    <circle cx="840" cy="480" r="0.7" opacity="0.55"></circle>
    <circle cx="900" cy="120" r="0.5" opacity="0.4"></circle>
    <circle cx="960" cy="280" r="1.0" opacity="0.7"></circle>
    <circle cx="1020" cy="440" r="0.6" opacity="0.5"></circle>
    <circle cx="1080" cy="70" r="0.9" opacity="0.6"></circle>
    <circle cx="1140" cy="220" r="0.5" opacity="0.4"></circle>
    <circle cx="80" cy="540" r="0.7" opacity="0.5"></circle>
    <circle cx="200" cy="350" r="0.5" opacity="0.6"></circle>
    <circle cx="400" cy="230" r="0.6" opacity="0.4"></circle>
    <circle cx="580" cy="550" r="1.0" opacity="0.6"></circle>
    <circle cx="760" cy="60" r="0.6" opacity="0.5"></circle>
    <circle cx="940" cy="380" r="0.8" opacity="0.7"></circle>
    <circle cx="1100" cy="510" r="0.5" opacity="0.4"></circle>
    <circle cx="160" cy="130" r="0.4" opacity="0.5"></circle>
    <circle cx="340" cy="470" r="0.7" opacity="0.55"></circle>
    <circle cx="520" cy="180" r="0.5" opacity="0.4"></circle>
    <circle cx="680" cy="290" r="0.8" opacity="0.6"></circle>
    <circle cx="860" cy="200" r="0.4" opacity="0.5"></circle>
    <circle cx="1040" cy="360" r="0.6" opacity="0.55"></circle>
  </g>
  <g fill="#5CE1FF">
    <circle cx="270" cy="180" r="1.4" opacity="0.8"></circle>
    <circle cx="650" cy="350" r="1.2" opacity="0.7"></circle>
    <circle cx="880" cy="90" r="1.0" opacity="0.9"></circle>
    <circle cx="140" cy="310" r="0.9" opacity="0.6"></circle>
    <circle cx="1000" cy="500" r="1.1" opacity="0.75"></circle>
  </g>
</svg>