<svg xmlns="http://www.w3.org/2000/svg" viewBox="0 0 1200 600" preserveAspectRatio="xMidYMid slice">
  <rect width="1200" height="600" fill="#040712"></rect>
  <g fill="#E6EEFF">
    <circle cx="301.3" cy="544.9" r="0.45" opacity="0.33"></circle>
    <circle cx="995.2" cy="26.5" r="1.54" opacity="0.5"></circle>
    <circle cx="178.9" cy="21.6" r="0.51" opacity="0.52"></circle>
    <circle cx="515.7" cy="25.1" r="0.87" opacity="0.52"></circle>
    <circle cx="1168.6" cy="449.7" r="0.56" opacity="0.86"></circle>
    <circle cx="195.0" cy="479.9" r="0.37" opacity="0.41"></circle>
    <circle cx="215.2" cy="554.7" r="0.82" opacity="0.77"></circle>
    <circle cx="803.9" cy="441.0" r="0.82" opacity="0.45"></circle>
    <circle cx="841.5" cy="229.5" r="0.75" opacity="0.32"></circle>
    <circle cx="239.5" cy="551.1" r="0.44" opacity="0.51"></circle>
    <circle cx="1045.6" cy="133.8" r="0.95" opacity="0.7"></circle>
    <circle cx="334.3" cy="41.7" r="0.82" opacity="0.76"></circle>
    <circle cx="611.3" cy="407.7" r="0.41" opacity="0.81"></circle>
    <circle cx="1180.3" cy="23.0" r="0.47" opacity="0.66"></circle>
    <circle cx="943.7" cy="261.8" r="0.4" opacity="0.89"></circle>
    <circle cx="1079.4" cy="114.0" r="0.73" opacity="0.33"></circle>
    <circle cx="884.4" cy="118.2" r="0.58" opacity="0.56"></circle>
    <circle cx="1104.9" cy="373.9" r="0.98" opacity="0.7"></circle>
    <circle cx="1080.1" cy="304.3" r="1.19" opacity="0.7"></circle>
    <circle cx="836.7" cy="332.6" r="0.8" opacity="0.42"></circle>
    <circle cx="487.3" cy="500.2" r="0.47" opacity="0.48"></circle>
    <circle cx="942.9" cy="364.0" r="0.36" opacity="0.49"></circle>
    <circle cx="883.2" cy="395.3" r="0.59" opacity="0.47"></circle>
    <circle cx="743.1" cy="56.0" r="0.9" opacity="0.87"></circle>
    <circle cx="372.5" cy="483.9" r="0.37" opacity="0.39"></circle>
    <circle cx="1180.7" cy="366.8" r="0.31" opacity="0.76"></circle>
    <circle cx="1063.4" cy="345.4" r="0.84" opacity="0.73"></circle>
    <circle cx="479.6" cy="88.5" r="0.42" opacity="0.71"></circle>
    <circle cx="1032.5" cy="531.3" r="0.57" opacity="0.77"></circle>
    <circle cx="964.9" cy="417.5" r="1.25" opacity="0.58"></circle>
    <circle cx="1101.0" cy="72.8" r="0.47" opacity="0.38"></circle>
    <circle cx="637.4" cy="335.4" r="0.84" opacity="0.49"></circle>
    <circle cx="531.1" cy="489.0" r="0.93" opacity="0.84"></circle>
    <circle cx="540.1" cy="451.1" r="0.56" opacity="0.8"></circle>
    <circle cx="856.3" cy="140.7" r="0.83" opacity="0.5"></circle>
    <circle cx="256.7" cy="248.9" r="0.75" opacity="0.5"></circle>
    <circle cx="74.7" cy="499.7" r="0.44" opacity="0.53"></circle>
    <circle cx="572.4" cy="565.6" r="0.47" opacity="0.48"></circle>
    <circle cx="1070.0" cy="501.4" r="0.42" opacity="0.62"></circle>
    <circle cx="959.8" cy="538.7" r="0.52" opacity="0.59"></circle>
    <circle cx="869.0" cy="504.3" r="0.94" opacity="0.85"></circle>
    <circle cx="640.9" cy="544.2" r="0.59" opacity="0.66"></circle>
    <circle cx="100.7" cy="257.2" r="0.5" opacity="0.82"></circle>
    <circle cx="1055.6" cy="167.0" r="1.34" opacity="0.87"></circle>
    <circle cx="1001.9" cy="282.2" r="0.43" opacity="0.75"></circle>
    <circle cx="1142.3" cy="134.5" r="0.32" opacity="0.34"></circle>
    <circle cx="48.3" cy="18.6" r="0.59" opacity="0.45"></circle>
    <circle cx="745.6" cy="143.1" r="0.55" opacity="0.58"></circle>
    <circle cx="1137.3" cy="279.0" r="0.73" opacity="0.45"></circle>
    <circle cx="727.1" cy="578.2" r="0.81" opacity="0.73"></circle>
    <circle cx="691.0" cy="544.8" r="0.58" opacity="0.53"></circle>
    <circle cx="836.6" cy="180.9" r="0.37" opacity="0.71"></circle>
    <circle cx="793.8" cy="41.4" r="0.86" opacity="0.69"></circle>
    <circle cx="1069.9" cy="275.8" r="0.81" opacity="0.39"></circle>
    <circle cx="626.1" cy="390.3" r="0.35" opacity="0.67"></circle>
    <circle cx="929.6" cy="278.9" r="0.58" opacity="0.8"></circle>
    <circle cx="386.8" cy="147.3" r="0.88" opacity="0.86"></circle>
    <circle cx="541.0" cy="450.3" r="0.38" opacity="0.64"></circle>
    <circle cx="403.7" cy="296.6" r="0.5" opacity="0.5"></circle>
    <circle cx="425.8" cy="155.0" r="0.45" opacity="0.47"></circle>
    <circle cx="1056.1" cy="333.5" r="0.48" opacity="0.61"></circle>
    <circle cx="289.6" cy="243.9" r="1.23" opacity="0.63"></circle>
    <circle cx="571.3" cy="427.1" r="0.37" opacity="0.57"></circle>
    <circle cx="353.1" cy="242.6" r="0.31" opacity="0.45"></circle>
    <circle cx="442.8" cy="332.1" r="0.5" opacity="0.51"></circle>
    <circle cx="660.5" cy="211.1" r="1.0" opacity="0.57"></circle>
    <circle cx="276.6" cy="432.8" r="0.79" opacity="0.49"></circle>
    <circle cx="1141.1" cy="414.1" r="0.52" opacity="0.41"></circle>
    <circle cx="331.8" cy="353.8" r="0.52" opacity="0.76"></circle>
    <circle cx="1176.6" cy="499.6" r="0.88" opacity="0.48"></circle>
    <circle cx="362.7" cy="424.8" r="0.81" opacity="0.38"></circle>
    <circle cx="65.4" cy="175.3" r="0.71" opacity="0.87"></circle>
    <circle cx="903.4" cy="61.6" r="0.49" opacity="0.31"></circle>
    <circle cx="574.5" cy="204.4" r="0.39" opacity="0.88"></circle>
    <circle cx="1034.1" cy="68.5" r="0.78" opacity="0.34"></circle>
    <circle cx="1139.0" cy="51.1" r="0.94" opacity="0.45"></circle>
    <circle cx="499.4" cy="357.7" r="0.47" opacity="0.67"></circle>
    <circle cx="456.5" cy="545.1" r="0.53" opacity="0.48"></circle>
    <circle cx="119.1" cy="457.6" r="0.59" opacity="0.68"></circle>
    <circle cx="345.7" cy="169.6" r="0.31" opacity="0.82"></circle>
    <circle cx="280.1" cy="158.7" r="0.32" opacity="0.77"></circle>
    <circle cx="964.7" cy="118.7" r="1.51" opacity="0.37"></circle>
    <circle cx="178.8" cy="159.4" r="0.37" opacity="0.39"></circle>
    <circle cx="951.2" cy="357.0" r="0.32" opacity="0.79"></circle>
    <circle cx="1067.3" cy="440.7" r="1.52" opacity="0.66"></circle>
    <circle cx="24.9" cy="458.9" r="0.88" opacity="0.79"></circle>
    <circle cx="915.7" cy="105.1" r="0.87" opacity="0.61"></circle>
    <circle cx="125.5" cy="96.5" r="0.8" opacity="0.55"></circle>
    <circle cx="795.1" cy="240.3" r="0.85" opacity="0.76"></circle>
    <circle cx="1037.9" cy="495.0" r="0.93" opacity="0.3"></circle>
    <circle cx="554.4" cy="32.5" r="0.96" opacity="0.61"></circle>
    <circle cx="598.2" cy="265.2" r="0.49" opacity="0.33"></circle>
    <circle cx="157.2" cy="172.8" r="0.38" opacity="0.83"></circle>
    <circle cx="34.6" cy="378.0" r="0.45" opacity="0.78"></circle>
    <circle cx="372.9" cy="8.2" r="0.51" opacity="0.54"></circle>
    <circle cx="1009.7" cy="68.1" r="0.37" opacity="0.87"></circle>
    <circle cx="184.8" cy="559.6" r="0.89" opacity="0.48"></circle>
    <circle cx="498.6" cy="289.5" r="0.51" opacity="0.58"></circle>
    <circle cx="163.8" cy="41.9" r="0.52" opacity="0.76"></circle>
    <circle cx="407.9" cy="472.6" r="0.56" opacity="0.46"></circle>
    <circle cx="871.3" cy="502.5" r="0.3" opacity="0.65"></circle>
    <circle cx="915.4" cy="226.3" r="0.4" opacity="0.86"></circle>
    <circle cx="492.9" cy="190.9" r="0.56" opacity="0.58"></circle>
    <circle cx="457.5" cy="593.0" r="1.74" opacity="0.78"></circle>
    <circle cx="398.4" cy="60.2" r="0.59" opacity="0.81"></circle>
    <circle cx="1163.9" cy="44.9" r="0.96" opacity="0.77"></circle>
    <circle cx="809.2" cy="320.2" r="0.4" opacity="0.87"></circle>
    <circle cx="281.7" cy="410.6" r="0.49" opacity="0.47"></circle>
    <circle cx="108.5" cy="587.0" r="0.37" opacity="0.76"></circle>
    <circle cx="120.6" cy="99.8" r="0.51" opacity="0.48"></circle>
    <circle cx="389.2" cy="33.7" r="0.31" opacity="0.52"></circle>
    <circle cx="293.0" cy="247.2" r="0.83" opacity="0.71"></circle>
    <circle cx="210.1" cy="365.7" r="0.35" opacity="0.53"></circle>
    <circle cx="597.2" cy="349.9" r="0.5" opacity="0.44"></circle>
    <circle cx="345.2" cy="328.0" r="0.84" opacity="0.34"></circle>
    <circle cx="1185.2" cy="179.5" r="0.58" opacity="0.88"></circle>
    <circle cx="548.2" cy="181.3" r="0.51" opacity="0.9"></circle>
    <circle cx="839.1" cy="13.2" r="0.39" opacity="0.8"></circle>
    <circle cx="9.7" cy="519.0" r="0.42" opacity="0.77"></circle>
    <circle cx="1092.7" cy="447.1" r="0.59" opacity="0.8"></circle>
    <circle cx="930.9" cy="138.1" r="0.57" opacity="0.78"></circle>
    <circle cx="228.2" cy="150.4" r="1.25" opacity="0.75"></circle>
    <circle cx="157.7" cy="545.8" r="1.36" opacity="0.5"></circle>
    <circle cx="241.0" cy="471.9" r="0.42" opacity="0.83"></circle>
    <circle cx="602.2" cy="163.5" r="0.81" opacity="0.4"></circle>
    <circle cx="1133.0" cy="580.4" r="0.57" opacity="0.48"></circle>
    <circle cx="270.7" cy="405.8" r="0.53" opacity="0.7"></circle>
    <circle cx="1014.9" cy="334.4" r="0.42" opacity="0.35"></circle>
    <circle cx="317.4" cy="74.2" r="0.42" opacity="0.52"></circle>
    <circle cx="809.8" cy="282.9" r="0.41" opacity="0.67"></circle>
    <circle cx="557.1" cy="420.6" r="0.49" opacity="0.69"></circle>
    <circle cx="54.4" cy="22.3" r="1.18" opacity="0.9"></circle>
    <circle cx="281.8" cy="322.5" r="0.73" opacity="0.53"></circle>
    <circle cx="871.9" cy="531.2" r="0.88" opacity="0.69"></circle>
    <circle cx="738.8" cy="563.4" r="1.68" opacity="0.47"></circle>
    <circle cx="1177.1" cy="220.4" r="0.81" opacity="0.84"></circle>
    <circle cx="72.7" cy="165.5" r="0.49" opacity="0.88"></circle>
    <circle cx="989.0" cy="55.0" r="0.58" opacity="0.43"></circle>
    <circle cx="1165.3" cy="30.3" r="0.49" opacity="0.5"></circle>
    <circle cx="944.4" cy="123.1" r="0.6" opacity="0.8"></circle>
    <circle cx="703.7" cy="487.8" r="0.47" opacity="0.44"></circle>
    <circle cx="946.4" cy="357.6" r="0.53" opacity="0.47"></circle>
    <circle cx="1185.0" cy="324.1" r="1.0" opacity="0.78"></circle>
    <circle cx="1039.7" cy="79.1" r="0.33" opacity="0.51"></circle>
    <circle cx="706.6" cy="9.5" r="0.94" opacity="0.46"></circle>
    <circle cx="738.1" cy="436.3" r="1.26" opacity="0.85"></circle>
    <circle cx="362.0" cy="386.0" r="0.5" opacity="0.32"></circle>
    <circle cx="532.3" cy="539.6" r="0.51" opacity="0.49"></circle>
    <circle cx="1053.2" cy="330.8" r="0.5" opacity="0.82"></circle>
    <circle cx="1065.7" cy="248.3" r="0.83" opacity="0.8"></circle>
  </g>
  <g fill="#5CE1FF">
    <circle cx="1175.8" cy="96.9" r="0.34" opacity="0.72"></circle>
    <circle cx="673.1" cy="67.1" r="1.59" opacity="0.97"></circle>
    <circle cx="1166.6" cy="23.9" r="0.58" opacity="0.68"></circle>
    <circle cx="800.3" cy="212.2" r="0.5" opacity="0.78"></circle>
    <circle cx="33.1" cy="526.2" r="0.8" opacity="0.63"></circle>
    <circle cx="623.9" cy="483.9" r="0.43" opacity="0.84"></circle>
    <circle cx="455.0" cy="448.9" r="0.5" opacity="0.59"></circle>
    <circle cx="810.8" cy="306.7" r="1.41" opacity="0.9"></circle>
    <circle cx="1088.2" cy="267.5" r="0.43" opacity="0.58"></circle>
    <circle cx="933.2" cy="290.8" r="0.78" opacity="0.62"></circle>
    <circle cx="96.7" cy="90.5" r="0.57" opacity="0.69"></circle>
    <circle cx="1135.3" cy="11.7" r="0.53" opacity="0.94"></circle>
    <circle cx="582.8" cy="233.3" r="0.38" opacity="0.83"></circle>
    <circle cx="312.2" cy="196.4" r="0.75" opacity="0.73"></circle>
    <circle cx="196.5" cy="186.6" r="0.93" opacity="0.79"></circle>
    <circle cx="238.0" cy="355.3" r="0.58" opacity="0.92"></circle>
    <circle cx="955.5" cy="339.6" r="0.54" opacity="0.52"></circle>
    <circle cx="504.1" cy="294.1" r="0.7" opacity="0.72"></circle>
    <circle cx="692.4" cy="411.9" r="0.45" opacity="0.58"></circle>
    <circle cx="514.6" cy="341.2" r="1.51" opacity="0.53"></circle>
    <circle cx="97.4" cy="143.9" r="0.38" opacity="0.78"></circle>
    <circle cx="490.2" cy="413.6" r="0.75" opacity="0.73"></circle>
    <circle cx="527.0" cy="281.2" r="0.98" opacity="0.65"></circle>
    <circle cx="326.7" cy="324.0" r="0.82" opacity="0.72"></circle>
    <circle cx="274.7" cy="404.6" r="0.71" opacity="0.93"></circle>
    <circle cx="333.8" cy="598.2" r="0.43" opacity="0.72"></circle>
    <circle cx="1162.9" cy="282.0" r="0.54" opacity="0.7"></circle>
    <circle cx="105.7" cy="151.4" r="0.71" opacity="0.56"></circle>
    <circle cx="173.6" cy="114.4" r="0.44" opacity="0.8"></circle>
    <circle cx="1038.3" cy="267.9" r="0.5" opacity="0.74"></circle>
    <circle cx="1176.9" cy="143.3" r="0.56" opacity="0.69"></circle>
    <circle cx="182.5" cy="578.9" r="0.9" opacity="0.56"></circle>
    <circle cx="1092.5" cy="9.2" r="1.17" opacity="0.57"></circle>
    <circle cx="747.9" cy="238.5" r="0.38" opacity="0.54"></circle>
    <circle cx="1064.9" cy="292.8" r="0.89" opacity="0.77"></circle>
    <circle cx="551.5" cy="400.1" r="0.49" opacity="0.95"></circle>
    <circle cx="128.0" cy="228.8" r="0.56" opacity="0.68"></circle>
    <circle cx="817.0" cy="82.1" r="1.64" opacity="0.55"></circle>
    <circle cx="47.3" cy="473.2" r="0.49" opacity="0.52"></circle>
    <circle cx="965.1" cy="281.0" r="1.71" opacity="0.54"></circle>
    <circle cx="314.6" cy="228.6" r="0.92" opacity="0.82"></circle>
    <circle cx="393.6" cy="366.0" r="0.58" opacity="0.82"></circle>
    <circle cx="1139.3" cy="417.9" r="0.41" opacity="0.77"></circle>
    <circle cx="260.7" cy="266.8" r="0.91" opacity="0.62"></circle>
    <circle cx="505.2" cy="68.2" r="0.74" opacity="0.53"></circle>
    <circle cx="434.4" cy="356.2" r="0.43" opacity="0.73"></circle>
    <circle cx="1016.8" cy="255.8" r="0.6" opacity="0.55"></circle>
    <circle cx="151.4" cy="374.6" r="0.34" opacity="0.79"></circle>
    <circle cx="457.1" cy="358.4" r="1.6" opacity="0.65"></circle>
    <circle cx="516.2" cy="475.9" r="0.45" opacity="0.56"></circle>
  </g>
</svg>
